<mxfile host="app.diagrams.net" modified="2021-03-29T12:54:39.542Z" agent="5.0 (Windows NT 10.0; Win64; x64) AppleWebKit/537.36 (KHTML, like Gecko) Chrome/89.0.4389.90 Safari/537.36" etag="Ow3p6_PbgTqhIWfnQ9VT" version="14.5.3" type="github">
  <diagram id="1IQAPYcpHpFOKWtz0pvj" name="第 1 页">
    <mxGraphModel dx="1422" dy="794" grid="1" gridSize="10" guides="1" tooltips="1" connect="1" arrows="1" fold="1" page="1" pageScale="1" pageWidth="827" pageHeight="1169" math="0" shadow="0">
      <root>
        <mxCell id="0" />
        <mxCell id="1" parent="0" />
        <mxCell id="8LTQT7HHdPxgCr38BMrY-7" style="edgeStyle=orthogonalEdgeStyle;rounded=0;orthogonalLoop=1;jettySize=auto;html=1;entryX=0.5;entryY=0;entryDx=0;entryDy=0;" edge="1" parent="1" source="8LTQT7HHdPxgCr38BMrY-1" target="8LTQT7HHdPxgCr38BMrY-5">
          <mxGeometry relative="1" as="geometry" />
        </mxCell>
        <mxCell id="8LTQT7HHdPxgCr38BMrY-1" value="用户名密码校验" style="rounded=0;whiteSpace=wrap;html=1;" vertex="1" parent="1">
          <mxGeometry x="339" y="140" width="90" height="40" as="geometry" />
        </mxCell>
        <mxCell id="8LTQT7HHdPxgCr38BMrY-3" style="edgeStyle=orthogonalEdgeStyle;rounded=0;orthogonalLoop=1;jettySize=auto;html=1;entryX=0.5;entryY=0;entryDx=0;entryDy=0;" edge="1" parent="1" source="8LTQT7HHdPxgCr38BMrY-2" target="8LTQT7HHdPxgCr38BMrY-1">
          <mxGeometry relative="1" as="geometry" />
        </mxCell>
        <mxCell id="8LTQT7HHdPxgCr38BMrY-2" value="&lt;span&gt;用户登陆&lt;/span&gt;" style="rounded=1;whiteSpace=wrap;html=1;" vertex="1" parent="1">
          <mxGeometry x="354" y="80" width="60" height="30" as="geometry" />
        </mxCell>
        <mxCell id="8LTQT7HHdPxgCr38BMrY-8" value="" style="edgeStyle=orthogonalEdgeStyle;rounded=0;orthogonalLoop=1;jettySize=auto;html=1;" edge="1" parent="1" source="8LTQT7HHdPxgCr38BMrY-5" target="8LTQT7HHdPxgCr38BMrY-6">
          <mxGeometry relative="1" as="geometry" />
        </mxCell>
        <mxCell id="8LTQT7HHdPxgCr38BMrY-18" style="edgeStyle=orthogonalEdgeStyle;rounded=0;orthogonalLoop=1;jettySize=auto;html=1;entryX=0;entryY=0.5;entryDx=0;entryDy=0;" edge="1" parent="1" source="8LTQT7HHdPxgCr38BMrY-5" target="8LTQT7HHdPxgCr38BMrY-15">
          <mxGeometry relative="1" as="geometry">
            <Array as="points">
              <mxPoint x="300" y="240" />
              <mxPoint x="300" y="612" />
            </Array>
          </mxGeometry>
        </mxCell>
        <mxCell id="8LTQT7HHdPxgCr38BMrY-5" value="&lt;span&gt;校验结果&lt;/span&gt;" style="rhombus;whiteSpace=wrap;html=1;" vertex="1" parent="1">
          <mxGeometry x="344" y="210" width="80" height="60" as="geometry" />
        </mxCell>
        <mxCell id="8LTQT7HHdPxgCr38BMrY-11" style="edgeStyle=orthogonalEdgeStyle;rounded=0;orthogonalLoop=1;jettySize=auto;html=1;entryX=0.5;entryY=0;entryDx=0;entryDy=0;" edge="1" parent="1" source="8LTQT7HHdPxgCr38BMrY-6" target="8LTQT7HHdPxgCr38BMrY-9">
          <mxGeometry relative="1" as="geometry" />
        </mxCell>
        <mxCell id="8LTQT7HHdPxgCr38BMrY-6" value="加载登录用户权限，获取菜单" style="rounded=0;whiteSpace=wrap;html=1;" vertex="1" parent="1">
          <mxGeometry x="339" y="300" width="90" height="40" as="geometry" />
        </mxCell>
        <mxCell id="8LTQT7HHdPxgCr38BMrY-12" value="" style="edgeStyle=orthogonalEdgeStyle;rounded=0;orthogonalLoop=1;jettySize=auto;html=1;" edge="1" parent="1" source="8LTQT7HHdPxgCr38BMrY-9" target="8LTQT7HHdPxgCr38BMrY-10">
          <mxGeometry relative="1" as="geometry" />
        </mxCell>
        <mxCell id="8LTQT7HHdPxgCr38BMrY-9" value="进入默认页面" style="rounded=0;whiteSpace=wrap;html=1;" vertex="1" parent="1">
          <mxGeometry x="336" y="370" width="96" height="40" as="geometry" />
        </mxCell>
        <mxCell id="8LTQT7HHdPxgCr38BMrY-16" style="edgeStyle=orthogonalEdgeStyle;rounded=0;orthogonalLoop=1;jettySize=auto;html=1;" edge="1" parent="1" source="8LTQT7HHdPxgCr38BMrY-10" target="8LTQT7HHdPxgCr38BMrY-14">
          <mxGeometry relative="1" as="geometry" />
        </mxCell>
        <mxCell id="8LTQT7HHdPxgCr38BMrY-10" value="操作系统" style="rounded=0;whiteSpace=wrap;html=1;" vertex="1" parent="1">
          <mxGeometry x="331" y="440" width="106" height="40" as="geometry" />
        </mxCell>
        <mxCell id="8LTQT7HHdPxgCr38BMrY-17" value="" style="edgeStyle=orthogonalEdgeStyle;rounded=0;orthogonalLoop=1;jettySize=auto;html=1;" edge="1" parent="1" source="8LTQT7HHdPxgCr38BMrY-14" target="8LTQT7HHdPxgCr38BMrY-15">
          <mxGeometry relative="1" as="geometry" />
        </mxCell>
        <mxCell id="8LTQT7HHdPxgCr38BMrY-21" style="edgeStyle=orthogonalEdgeStyle;rounded=0;orthogonalLoop=1;jettySize=auto;html=1;entryX=1;entryY=0.25;entryDx=0;entryDy=0;" edge="1" parent="1" source="8LTQT7HHdPxgCr38BMrY-14" target="8LTQT7HHdPxgCr38BMrY-10">
          <mxGeometry relative="1" as="geometry">
            <Array as="points">
              <mxPoint x="480" y="540" />
              <mxPoint x="480" y="450" />
            </Array>
          </mxGeometry>
        </mxCell>
        <mxCell id="8LTQT7HHdPxgCr38BMrY-14" value="是否退出" style="rhombus;whiteSpace=wrap;html=1;" vertex="1" parent="1">
          <mxGeometry x="336" y="510" width="96" height="60" as="geometry" />
        </mxCell>
        <mxCell id="8LTQT7HHdPxgCr38BMrY-15" value="结束，跳转至登陆界面" style="rounded=1;whiteSpace=wrap;html=1;" vertex="1" parent="1">
          <mxGeometry x="342.5" y="597" width="83" height="30" as="geometry" />
        </mxCell>
        <mxCell id="8LTQT7HHdPxgCr38BMrY-19" value="失败" style="text;html=1;align=center;verticalAlign=middle;resizable=0;points=[];autosize=1;" vertex="1" parent="1">
          <mxGeometry x="250" y="330" width="40" height="20" as="geometry" />
        </mxCell>
        <mxCell id="8LTQT7HHdPxgCr38BMrY-20" value="成功" style="text;html=1;align=center;verticalAlign=middle;resizable=0;points=[];autosize=1;" vertex="1" parent="1">
          <mxGeometry x="385.5" y="270" width="40" height="20" as="geometry" />
        </mxCell>
        <mxCell id="8LTQT7HHdPxgCr38BMrY-22" value="是" style="text;html=1;align=center;verticalAlign=middle;resizable=0;points=[];autosize=1;" vertex="1" parent="1">
          <mxGeometry x="395" y="560" width="30" height="20" as="geometry" />
        </mxCell>
        <mxCell id="8LTQT7HHdPxgCr38BMrY-23" value="否" style="text;html=1;align=center;verticalAlign=middle;resizable=0;points=[];autosize=1;" vertex="1" parent="1">
          <mxGeometry x="437" y="490" width="30" height="20" as="geometry" />
        </mxCell>
      </root>
    </mxGraphModel>
  </diagram>
</mxfile>
